<?xml version="1.0" encoding="UTF-8" standalone="no"?>
<!DOCTYPE svg PUBLIC "-//W3C//DTD SVG 1.0//EN" "http://www.w3.org/TR/2001/PR-SVG-20010719/DTD/svg10.dtd">
<svg width="50cm" height="23cm" viewBox="62 81 983 441" xmlns="http://www.w3.org/2000/svg" xmlns:xlink="http://www.w3.org/1999/xlink">
  <g>
    <rect style="fill: #ffffff" x="382" y="84" width="333.4" height="28"/>
    <rect style="fill: none; fill-opacity:0; stroke-width: 2; stroke: #000000" x="382" y="84" width="333.4" height="28"/>
    <text font-size="16" style="fill: #000000;text-anchor:middle;font-family:sans-serif;font-style:normal;font-weight:700" x="548.7" y="103">AudioProcessor</text>
    <rect style="fill: #ffffff" x="382" y="112" width="333.4" height="20"/>
    <rect style="fill: none; fill-opacity:0; stroke-width: 2; stroke: #000000" x="382" y="112" width="333.4" height="20"/>
    <text font-size="12.8" style="fill: #000000;text-anchor:start;font-family:monospace;font-style:normal;font-weight:normal" x="385" y="126">#underlying: AudioProcessor</text>
    <rect style="fill: #ffffff" x="382" y="132" width="333.4" height="52"/>
    <rect style="fill: none; fill-opacity:0; stroke-width: 2; stroke: #000000" x="382" y="132" width="333.4" height="52"/>
    <text font-size="12.8" style="fill: #000000;text-anchor:start;font-family:monospace;font-style:italic;font-weight:normal" x="385" y="146">+configure()</text>
    <text font-size="12.8" style="fill: #000000;text-anchor:start;font-family:monospace;font-style:italic;font-weight:normal" x="385" y="162">+process(outputBuffer,inputBuffer,nFrames,</text>
    <text font-size="12.8" style="fill: #000000;text-anchor:start;font-family:monospace;font-style:italic;font-weight:normal" x="385" y="178">         streamTime,status,userData): int</text>
  </g>
  <g>
    <rect style="fill: #ffffff" x="711" y="252" width="256.4" height="28"/>
    <rect style="fill: none; fill-opacity:0; stroke-width: 2; stroke: #000000" x="711" y="252" width="256.4" height="28"/>
    <text font-size="16" style="fill: #000000;text-anchor:middle;font-family:sans-serif;font-style:italic;font-weight:700" x="839.2" y="271">NetworkWrapper</text>
    <rect style="fill: #ffffff" x="711" y="280" width="256.4" height="20"/>
    <rect style="fill: none; fill-opacity:0; stroke-width: 2; stroke: #000000" x="711" y="280" width="256.4" height="20"/>
    <text font-size="12.8" style="fill: #000000;text-anchor:start;font-family:monospace;font-style:normal;font-weight:normal" x="714" y="294">+Socket: int</text>
    <rect style="fill: #ffffff" x="711" y="300" width="256.4" height="84"/>
    <rect style="fill: none; fill-opacity:0; stroke-width: 2; stroke: #000000" x="711" y="300" width="256.4" height="84"/>
    <text font-size="12.8" style="fill: #000000;text-anchor:start;font-family:monospace;font-style:normal;font-weight:normal" x="714" y="314">#initializeNetwork(): int</text>
    <text font-size="12.8" style="fill: #000000;text-anchor:start;font-family:monospace;font-style:normal;font-weight:normal" x="714" y="330">#startWinsock(): int</text>
    <text font-size="12.8" style="fill: #000000;text-anchor:start;font-family:monospace;font-style:normal;font-weight:normal" x="714" y="346">#createSocket(): int</text>
    <text font-size="12.8" style="fill: #000000;text-anchor:start;font-family:monospace;font-style:normal;font-weight:normal" x="714" y="362">#getBytesFromAudioFormat(): uint</text>
    <text font-size="12.8" style="fill: #000000;text-anchor:start;font-family:monospace;font-style:normal;font-weight:normal" x="714" y="378">#getLastError(): int</text>
  </g>
  <g>
    <polyline style="fill: none; fill-opacity:0; stroke-width: 2; stroke: #000000" points="548.7,202.236 548.7,226 839.2,226 839.2,252 "/>
    <polygon style="fill: #ffffff" points="556.7,202.236 548.7,186.236 540.7,202.236 "/>
    <polygon style="fill: none; fill-opacity:0; stroke-width: 2; stroke: #000000" points="556.7,202.236 548.7,186.236 540.7,202.236 "/>
  </g>
  <g>
    <rect style="fill: #ffffff" x="918" y="448" width="125.75" height="28"/>
    <rect style="fill: none; fill-opacity:0; stroke-width: 2; stroke: #000000" x="918" y="448" width="125.75" height="28"/>
    <text font-size="16" style="fill: #000000;text-anchor:middle;font-family:sans-serif;font-style:normal;font-weight:700" x="980.875" y="467">UDPWrapper</text>
    <rect style="fill: #ffffff" x="918" y="476" width="125.75" height="8"/>
    <rect style="fill: none; fill-opacity:0; stroke-width: 2; stroke: #000000" x="918" y="476" width="125.75" height="8"/>
    <rect style="fill: #ffffff" x="918" y="484" width="125.75" height="36"/>
    <rect style="fill: none; fill-opacity:0; stroke-width: 2; stroke: #000000" x="918" y="484" width="125.75" height="36"/>
    <text font-size="12.8" style="fill: #000000;text-anchor:start;font-family:monospace;font-style:normal;font-weight:normal" x="921" y="498">+configure()</text>
    <text font-size="12.8" style="fill: #000000;text-anchor:start;font-family:monospace;font-style:normal;font-weight:normal" x="921" y="514">+process(...)</text>
  </g>
  <g>
    <polyline style="fill: none; fill-opacity:0; stroke-width: 2; stroke: #000000" points="839.2,402.236 839.2,424 980.875,424 980.875,448 "/>
    <polygon style="fill: #ffffff" points="847.2,402.236 839.2,386.236 831.2,402.236 "/>
    <polygon style="fill: none; fill-opacity:0; stroke-width: 2; stroke: #000000" points="847.2,402.236 839.2,386.236 831.2,402.236 "/>
  </g>
  <g>
    <polygon style="fill: #ffffff" points="583,447 804.6,447 816.6,459 816.6,481 583,481 "/>
    <polygon style="fill: none; fill-opacity:0; stroke-width: 2; stroke: #000000" points="583,447 804.6,447 816.6,459 816.6,481 583,481 "/>
    <polyline style="fill: none; fill-opacity:0; stroke-width: 1; stroke: #000000" points="804.6,447 804.6,459 816.6,459 "/>
    <text font-size="12.7998" style="fill: #000000;text-anchor:start;font-family:monospace;font-style:normal;font-weight:normal" x="590" y="471.9">
      <tspan x="590" y="471.9">RTPWrapper, FileWrapper, ...</tspan>
    </text>
  </g>
  <g>
    <polyline style="fill: none; fill-opacity:0; stroke-width: 2; stroke: #000000" points="839.2,402.236 839.2,423.5 699.8,423.5 699.8,447 "/>
    <polygon style="fill: #ffffff" points="847.2,402.236 839.2,386.236 831.2,402.236 "/>
    <polygon style="fill: none; fill-opacity:0; stroke-width: 2; stroke: #000000" points="847.2,402.236 839.2,386.236 831.2,402.236 "/>
  </g>
  <g>
    <polygon style="fill: #ffffff" points="276,252 582.3,252 594.3,264 594.3,286 276,286 "/>
    <polygon style="fill: none; fill-opacity:0; stroke-width: 2; stroke: #000000" points="276,252 582.3,252 594.3,264 594.3,286 276,286 "/>
    <polyline style="fill: none; fill-opacity:0; stroke-width: 1; stroke: #000000" points="582.3,252 582.3,264 594.3,264 "/>
    <text font-size="12.7998" style="fill: #000000;text-anchor:start;font-family:monospace;font-style:normal;font-weight:normal" x="283" y="276.9">
      <tspan x="283" y="276.9">Filter, (De)Coder, (De)Compression, ...</tspan>
    </text>
  </g>
  <g>
    <polyline style="fill: none; fill-opacity:0; stroke-width: 2; stroke: #000000" points="548.7,202.236 548.7,226 435.15,226 435.15,252 "/>
    <polygon style="fill: #ffffff" points="556.7,202.236 548.7,186.236 540.7,202.236 "/>
    <polygon style="fill: none; fill-opacity:0; stroke-width: 2; stroke: #000000" points="556.7,202.236 548.7,186.236 540.7,202.236 "/>
  </g>
  <g>
    <rect style="fill: #ffffff" x="63" y="82" width="125.5" height="28"/>
    <rect style="fill: none; fill-opacity:0; stroke-width: 2; stroke: #000000" x="63" y="82" width="125.5" height="28"/>
    <text font-size="16" style="fill: #000000;text-anchor:middle;font-family:sans-serif;font-style:normal;font-weight:700" x="125.75" y="101">OHMComm</text>
    <rect style="fill: #ffffff" x="63" y="110" width="125.5" height="8"/>
    <rect style="fill: none; fill-opacity:0; stroke-width: 2; stroke: #000000" x="63" y="110" width="125.5" height="8"/>
    <rect style="fill: #ffffff" x="63" y="118" width="125.5" height="36"/>
    <rect style="fill: none; fill-opacity:0; stroke-width: 2; stroke: #000000" x="63" y="118" width="125.5" height="36"/>
    <text font-size="12.8" style="fill: #000000;text-anchor:start;font-family:monospace;font-style:normal;font-weight:normal" x="66" y="132">+configureXYZ()</text>
    <text font-size="12.8" style="fill: #000000;text-anchor:start;font-family:monospace;font-style:normal;font-weight:normal" x="66" y="148">+main()</text>
  </g>
  <polyline style="fill: none; fill-opacity:0; stroke-width: 2; stroke: #000000" points="188.5,96 285.25,96 285.25,98 382,98 "/>
</svg>
