<?xml version="1.0" encoding="UTF-8" standalone="no"?>
<!DOCTYPE svg PUBLIC "-//W3C//DTD SVG 1.0//EN" "http://www.w3.org/TR/2001/PR-SVG-20010719/DTD/svg10.dtd">
<svg width="43cm" height="20cm" viewBox="102 100 856 383" xmlns="http://www.w3.org/2000/svg" xmlns:xlink="http://www.w3.org/1999/xlink">
  <g>
    <line style="fill: none; fill-opacity:0; stroke-width: 1; stroke-dasharray: 8; stroke: #000000" x1="892.05" y1="139" x2="892.05" y2="291"/>
    <line style="fill: none; fill-opacity:0; stroke-width: 1; stroke-dasharray: 8; stroke: #000000" x1="892.05" y1="331" x2="892.05" y2="478"/>
    <rect style="fill: #ffffff" x="885.05" y="291" width="14" height="40"/>
    <rect style="fill: none; fill-opacity:0; stroke-width: 2; stroke: #000000" x="885.05" y="291" width="14" height="40"/>
  </g>
  <g>
    <line style="fill: none; fill-opacity:0; stroke-width: 1; stroke-dasharray: 8; stroke: #000000" x1="669.1" y1="139" x2="669.1" y2="282"/>
    <line style="fill: none; fill-opacity:0; stroke-width: 1; stroke-dasharray: 8; stroke: #000000" x1="669.1" y1="322" x2="669.1" y2="478"/>
    <rect style="fill: #ffffff" x="662.1" y="282" width="14" height="40"/>
    <rect style="fill: none; fill-opacity:0; stroke-width: 2; stroke: #000000" x="662.1" y="282" width="14" height="40"/>
  </g>
  <g>
    <line style="fill: none; fill-opacity:0; stroke-width: 1; stroke-dasharray: 8; stroke: #000000" x1="469.1" y1="138" x2="469.1" y2="273"/>
    <line style="fill: none; fill-opacity:0; stroke-width: 1; stroke-dasharray: 8; stroke: #000000" x1="469.1" y1="313" x2="469.1" y2="479"/>
    <rect style="fill: #ffffff" x="462.1" y="273" width="14" height="40"/>
    <rect style="fill: none; fill-opacity:0; stroke-width: 2; stroke: #000000" x="462.1" y="273" width="14" height="40"/>
  </g>
  <g>
    <rect style="fill: #ffffff" x="103" y="102" width="70.3" height="36"/>
    <rect style="fill: none; fill-opacity:0; stroke-width: 2; stroke: #000000" x="103" y="102" width="70.3" height="36"/>
    <text font-size="12.7998" style="fill: #000000;text-anchor:middle;font-family:sans-serif;font-style:normal;font-weight:normal" x="138.15" y="123.9">
      <tspan x="138.15" y="123.9">RtAudio</tspan>
    </text>
    <line style="fill: none; fill-opacity:0; stroke-width: 1; stroke: #000000" x1="113" y1="126.9" x2="163.3" y2="126.9"/>
  </g>
  <g>
    <rect style="fill: #ffffff" x="406" y="102" width="126.2" height="36"/>
    <rect style="fill: none; fill-opacity:0; stroke-width: 2; stroke: #000000" x="406" y="102" width="126.2" height="36"/>
    <text font-size="12.7998" style="fill: #000000;text-anchor:middle;font-family:sans-serif;font-style:normal;font-weight:normal" x="469.1" y="123.9">
      <tspan x="469.1" y="123.9">AudioProcessor1</tspan>
    </text>
    <line style="fill: none; fill-opacity:0; stroke-width: 1; stroke: #000000" x1="416" y1="126.9" x2="522.2" y2="126.9"/>
  </g>
  <g>
    <rect style="fill: #ffffff" x="606" y="103" width="126.2" height="36"/>
    <rect style="fill: none; fill-opacity:0; stroke-width: 2; stroke: #000000" x="606" y="103" width="126.2" height="36"/>
    <text font-size="12.7998" style="fill: #000000;text-anchor:middle;font-family:sans-serif;font-style:normal;font-weight:normal" x="669.1" y="124.9">
      <tspan x="669.1" y="124.9">AudioProcessor2</tspan>
    </text>
    <line style="fill: none; fill-opacity:0; stroke-width: 1; stroke: #000000" x1="616" y1="127.9" x2="722.2" y2="127.9"/>
  </g>
  <g>
    <rect style="fill: #ffffff" x="828" y="103" width="128.1" height="36"/>
    <rect style="fill: none; fill-opacity:0; stroke-width: 2; stroke: #000000" x="828" y="103" width="128.1" height="36"/>
    <text font-size="12.7998" style="fill: #000000;text-anchor:middle;font-family:sans-serif;font-style:normal;font-weight:normal" x="892.05" y="124.9">
      <tspan x="892.05" y="124.9">NetworkWrapper</tspan>
    </text>
    <line style="fill: none; fill-opacity:0; stroke-width: 1; stroke: #000000" x1="838" y1="127.9" x2="946.1" y2="127.9"/>
  </g>
  <g>
    <line style="fill: none; fill-opacity:0; stroke-width: 1; stroke-dasharray: 8; stroke: #000000" x1="138.15" y1="138" x2="138.15" y2="214"/>
    <line style="fill: none; fill-opacity:0; stroke-width: 1; stroke-dasharray: 8; stroke: #000000" x1="138.15" y1="334" x2="138.15" y2="482"/>
    <rect style="fill: #ffffff" x="131.15" y="214" width="14" height="120"/>
    <rect style="fill: none; fill-opacity:0; stroke-width: 2; stroke: #000000" x="131.15" y="214" width="14" height="120"/>
  </g>
  <g>
    <line style="fill: none; fill-opacity:0; stroke-width: 1; stroke-dasharray: 8; stroke: #000000" x1="469.1" y1="138" x2="469.1" y2="200"/>
    <line style="fill: none; fill-opacity:0; stroke-width: 1; stroke-dasharray: 8; stroke: #000000" x1="469.1" y1="240" x2="469.1" y2="240"/>
    <rect style="fill: #ffffff" x="462.1" y="200" width="14" height="40"/>
    <rect style="fill: none; fill-opacity:0; stroke-width: 2; stroke: #000000" x="462.1" y="200" width="14" height="40"/>
  </g>
  <g>
    <polygon style="fill: #ffffff" points="303,101 339.8,101 351.8,113 351.8,135 303,135 "/>
    <polygon style="fill: none; fill-opacity:0; stroke-width: 2; stroke: #000000" points="303,101 339.8,101 351.8,113 351.8,135 303,135 "/>
    <polyline style="fill: none; fill-opacity:0; stroke-width: 1; stroke: #000000" points="339.8,101 339.8,113 351.8,113 "/>
    <text font-size="12.7998" style="fill: #000000;text-anchor:start;font-family:monospace;font-style:normal;font-weight:normal" x="310" y="125.9">
      <tspan x="310" y="125.9">Main</tspan>
    </text>
  </g>
  <g>
    <line style="fill: none; fill-opacity:0; stroke-width: 1; stroke-dasharray: 8; stroke: #000000" x1="327.4" y1="135" x2="327.4" y2="184"/>
    <line style="fill: none; fill-opacity:0; stroke-width: 1; stroke-dasharray: 8; stroke: #000000" x1="327.4" y1="244" x2="327.4" y2="479"/>
    <rect style="fill: #ffffff" x="320.4" y="184" width="14" height="60"/>
    <rect style="fill: none; fill-opacity:0; stroke-width: 2; stroke: #000000" x="320.4" y="184" width="14" height="60"/>
  </g>
  <g>
    <line style="fill: none; fill-opacity:0; stroke-width: 2; stroke: #000000" x1="162.15" y1="214" x2="320.4" y2="214"/>
    <polygon style="fill: #000000" points="162.15,209 146.15,214 162.15,219 "/>
    <polygon style="fill: none; fill-opacity:0; stroke-width: 2; stroke: #000000" points="162.15,209 146.15,214 162.15,219 "/>
    <text font-size="12.7998" style="fill: #000000;text-anchor:middle;font-family:sans-serif;font-style:normal;font-weight:normal" x="232.775" y="224">openStream(...)</text>
  </g>
  <g>
    <line style="fill: none; fill-opacity:0; stroke-width: 2; stroke: #000000" x1="445.101" y1="199.867" x2="334.4" y2="199"/>
    <polygon style="fill: #000000" points="445.061,204.867 461.1,199.992 445.14,194.867 "/>
    <polygon style="fill: none; fill-opacity:0; stroke-width: 2; stroke: #000000" points="445.061,204.867 461.1,199.992 445.14,194.867 "/>
    <text font-size="12.7998" style="fill: #000000;text-anchor:middle;font-family:sans-serif;font-style:normal;font-weight:normal" x="399" y="213.5">configure()</text>
  </g>
  <g>
    <line style="fill: none; fill-opacity:0; stroke-width: 1; stroke-dasharray: 8; stroke: #000000" x1="669.1" y1="139" x2="669.1" y2="210"/>
    <line style="fill: none; fill-opacity:0; stroke-width: 1; stroke-dasharray: 8; stroke: #000000" x1="669.1" y1="250" x2="669.1" y2="250"/>
    <rect style="fill: #ffffff" x="662.1" y="210" width="14" height="40"/>
    <rect style="fill: none; fill-opacity:0; stroke-width: 2; stroke: #000000" x="662.1" y="210" width="14" height="40"/>
  </g>
  <g>
    <line style="fill: none; fill-opacity:0; stroke-width: 2; stroke: #000000" x1="645.1" y1="210" x2="476.1" y2="210"/>
    <polygon style="fill: #000000" points="645.1,215 661.1,210 645.1,205 "/>
    <polygon style="fill: none; fill-opacity:0; stroke-width: 2; stroke: #000000" points="645.1,215 661.1,210 645.1,205 "/>
    <text font-size="12.7998" style="fill: #000000;text-anchor:middle;font-family:sans-serif;font-style:normal;font-weight:normal" x="569" y="226.5">configure()</text>
  </g>
  <g>
    <line style="fill: none; fill-opacity:0; stroke-width: 1; stroke-dasharray: 8; stroke: #000000" x1="892.05" y1="139" x2="892.05" y2="221"/>
    <line style="fill: none; fill-opacity:0; stroke-width: 1; stroke-dasharray: 8; stroke: #000000" x1="892.05" y1="261" x2="892.05" y2="261"/>
    <rect style="fill: #ffffff" x="885.05" y="221" width="14" height="40"/>
    <rect style="fill: none; fill-opacity:0; stroke-width: 2; stroke: #000000" x="885.05" y="221" width="14" height="40"/>
  </g>
  <g>
    <line style="fill: none; fill-opacity:0; stroke-width: 2; stroke: #000000" x1="868.05" y1="220.919" x2="676.1" y2="220"/>
    <polygon style="fill: #000000" points="868.026,225.919 884.05,220.995 868.074,215.919 "/>
    <polygon style="fill: none; fill-opacity:0; stroke-width: 2; stroke: #000000" points="868.026,225.919 884.05,220.995 868.074,215.919 "/>
    <text font-size="12.7998" style="fill: #000000;text-anchor:middle;font-family:sans-serif;font-style:normal;font-weight:normal" x="780" y="237">configure()</text>
  </g>
  <g>
    <line style="fill: none; fill-opacity:0; stroke-width: 2; stroke: #000000" x1="445.1" y1="273.054" x2="145.15" y2="274"/>
    <polygon style="fill: #000000" points="445.116,278.054 461.1,273.003 445.084,268.054 "/>
    <polygon style="fill: none; fill-opacity:0; stroke-width: 2; stroke: #000000" points="445.116,278.054 461.1,273.003 445.084,268.054 "/>
    <text font-size="12.7998" style="fill: #000000;text-anchor:middle;font-family:sans-serif;font-style:normal;font-weight:normal" x="259" y="289">process(...)</text>
  </g>
  <g>
    <line style="fill: none; fill-opacity:0; stroke-width: 2; stroke: #000000" x1="645.1" y1="282.091" x2="476.1" y2="283"/>
    <polygon style="fill: #000000" points="645.127,287.091 661.1,282.005 645.073,277.091 "/>
    <polygon style="fill: none; fill-opacity:0; stroke-width: 2; stroke: #000000" points="645.127,287.091 661.1,282.005 645.073,277.091 "/>
    <text font-size="12.7998" style="fill: #000000;text-anchor:middle;font-family:sans-serif;font-style:normal;font-weight:normal" x="563" y="298">process(...)</text>
  </g>
  <g>
    <line style="fill: none; fill-opacity:0; stroke-width: 2; stroke: #000000" x1="868.05" y1="291.081" x2="676.1" y2="292"/>
    <polygon style="fill: #000000" points="868.074,296.081 884.05,291.005 868.026,286.081 "/>
    <polygon style="fill: none; fill-opacity:0; stroke-width: 2; stroke: #000000" points="868.074,296.081 884.05,291.005 868.026,286.081 "/>
    <text font-size="12.7998" style="fill: #000000;text-anchor:middle;font-family:sans-serif;font-style:normal;font-weight:normal" x="771" y="310">process(...)</text>
  </g>
</svg>
